<svg width="66" height="66" viewBox="0 0 66 66" fill="none" xmlns="http://www.w3.org/2000/svg">
<path d="M8.7649 16.3694C8.7649 12.1692 12.168 8.76608 16.3681 8.76271H19.8283C21.8359 8.76271 23.7594 7.96573 25.1852 6.55334L27.603 4.13212C30.5656 1.15267 35.381 1.13922 38.3604 4.10185L38.3638 4.10522L38.3941 4.13212L40.8152 6.55334C42.241 7.96909 44.1645 8.76271 46.1721 8.76271H49.629C53.8291 8.76271 57.2355 12.1659 57.2355 16.3694V19.823C57.2355 21.8306 58.0291 23.7575 59.4448 25.1833L61.866 27.6046C64.8454 30.5672 64.8622 35.3827 61.8996 38.3622L61.8963 38.3656L61.866 38.3958L59.4448 40.8171C58.0291 42.2395 57.2355 44.163 57.2355 46.1706V49.631C57.2355 53.8311 53.8324 57.2343 49.6323 57.2343H49.629H46.1654C44.1578 57.2343 42.2309 58.0313 40.8085 59.447L38.3873 61.8649C35.4281 64.8444 30.616 64.8612 27.6366 61.9053C27.6333 61.9019 27.6299 61.8985 27.6265 61.8952L27.5963 61.8649L25.1785 59.447C23.756 58.0313 21.8292 57.2377 19.8216 57.2343H16.3681C12.168 57.2343 8.7649 53.8311 8.7649 49.631V46.1639C8.7649 44.1563 7.96793 42.2328 6.55222 40.8103L4.1344 38.3891C1.15501 35.4298 1.1382 30.6176 4.09741 27.6382C4.09741 27.6348 4.10078 27.6315 4.10414 27.6281L4.1344 27.5978L6.55222 25.1766C7.96793 23.7508 8.7649 21.8272 8.7649 19.8163V16.3694" stroke="white" stroke-width="2" stroke-linecap="round" stroke-linejoin="round"/>
<path fill-rule="evenodd" clip-rule="evenodd" d="M34.3633 22.7736L36.6193 27.5459C36.8404 28.0144 37.2672 28.3392 37.7622 28.4144L42.8091 29.1836C44.056 29.3742 44.5522 30.9744 43.6498 31.8912L40.0002 35.6043C39.6416 35.9694 39.4783 36.4943 39.5631 37.0098L40.4244 42.2518C40.6365 43.5486 39.333 44.5379 38.2185 43.9245L33.7077 41.4477C33.2655 41.2048 32.7358 41.2048 32.2923 41.4477L27.7815 43.9245C26.6669 44.5379 25.3634 43.5486 25.5768 42.2518L26.4368 37.0098C26.5217 36.4943 26.3584 35.9694 25.9998 35.6043L22.3502 31.8912C21.4478 30.9744 21.944 29.3742 23.1909 29.1836L28.2378 28.4144C28.7328 28.3392 29.1608 28.0144 29.3819 27.5459L31.6367 22.7736C32.1946 21.5937 33.8054 21.5937 34.3633 22.7736Z" stroke="white" stroke-width="2" stroke-linecap="round" stroke-linejoin="round"/>
</svg>
