<svg width="78" height="76" viewBox="0 0 78 76" fill="none" xmlns="http://www.w3.org/2000/svg">
<path d="M43.1223 68.8887H34.8924C34.3938 68.8887 33.9807 69.3023 33.9807 69.8004C33.9807 70.299 34.3943 70.7121 34.8924 70.7121H43.1223C43.6209 70.7121 44.034 70.2985 44.034 69.8004C44.034 69.3023 43.6327 68.8887 43.1223 68.8887Z" fill="white"/>
<path d="M77.4279 63.9892C77.2578 63.758 76.978 63.6243 76.6987 63.6243H73.2825V27.0448C73.2825 23.2519 70.1948 20.1765 66.4142 20.1765L61.6239 20.1759L61.3323 18.1337C60.907 14.6323 57.9161 11.9946 54.3908 11.9946H50.5615V10.2563C50.5615 4.68877 46.0395 0.166016 40.4712 0.166016C34.9037 0.166016 30.381 4.68806 30.381 10.2563V11.9946H25.8225C22.2972 11.9946 19.3186 14.6329 18.881 18.1214L18.5894 20.1882H11.5992C7.80626 20.1882 4.73087 23.276 4.73087 27.0565V63.636L1.32694 63.6366C1.03535 63.6366 0.767843 63.7703 0.597704 64.0015C0.427566 64.2326 0.378881 64.5365 0.451636 64.8158L3.64896 75.3554C3.7704 75.7444 4.12299 75.9996 4.52428 75.9996H73.5011C73.9023 75.9996 74.2549 75.732 74.3764 75.3554L77.5737 64.8158C77.6588 64.5237 77.5978 64.2198 77.4276 63.9892L77.4279 63.9892ZM32.2047 10.2439C32.2047 5.68551 35.9125 1.9777 40.4833 1.9777C45.0417 1.9777 48.7495 5.68551 48.7495 10.2439V11.9823H32.2041L32.2047 10.2439ZM20.6923 18.3401C21.0085 15.7506 23.2208 13.8057 25.8222 13.8057H30.3807V18.887C29.3962 19.2636 28.691 20.2 28.691 21.3182C28.691 22.7527 29.8579 23.9195 31.3046 23.9195C32.7391 23.9195 33.9059 22.7526 33.9059 21.3182C33.9059 20.2 33.2008 19.2637 32.204 18.887V13.8057H48.7379V18.887C47.7534 19.2636 47.0483 20.2 47.0483 21.3182C47.0483 22.7527 48.2152 23.9195 49.6619 23.9195C51.0963 23.9195 52.2632 22.7526 52.2632 21.3182C52.2632 20.2 51.558 19.2637 50.5612 18.887V13.8057H54.3905C56.9918 13.8057 59.2048 15.7629 59.5205 18.3642L64.1276 51.0896C64.3101 52.5604 63.8478 54.0317 62.8633 55.1377C61.8789 56.2441 60.4685 56.876 58.9978 56.876L21.2033 56.8766C19.7201 56.8766 18.3099 56.2441 17.3378 55.1382C16.3533 54.0317 15.9033 52.5487 16.0735 51.1025L20.6923 18.3401ZM6.55392 27.0446C6.55392 24.2608 8.81494 21.9998 11.5988 21.9998H18.3338L14.2611 50.8596C14.0182 52.8414 14.6378 54.8472 15.9631 56.3422C17.2884 57.8377 19.1968 58.7006 21.2026 58.7006H58.9971C61.0029 58.7006 62.9113 57.8376 64.2366 56.3422C65.5619 54.8467 66.1814 52.8408 65.9386 50.8473L61.8782 22.0003H66.4249C69.2087 22.0003 71.4697 24.2614 71.4697 27.0452V63.6247H6.55335L6.55392 27.0446ZM72.8199 74.1634H5.20428L2.55426 65.4471H75.4582L72.8199 74.1634Z" fill="white"/>
<path d="M41.7368 44.2224C41.8582 44.9029 42.3446 45.4503 43.0011 45.6692C43.6699 45.888 44.3868 45.7178 44.8854 45.2315C44.9705 45.1464 45.0315 45.0614 45.0802 44.9517L45.9432 43.0186L50.04 47.1277C50.4049 47.4803 50.8789 47.6628 51.353 47.6628C51.827 47.6628 52.3134 47.4803 52.666 47.116L54.818 44.964C55.5354 44.2465 55.5354 43.0673 54.818 42.3257L50.7212 38.2412L52.6542 37.3782C52.7516 37.3295 52.849 37.2691 52.9341 37.1835C53.4204 36.6848 53.5905 35.9679 53.3717 35.2991C53.1652 34.6426 52.6061 34.1563 51.9249 34.0348L42.1996 32.3569C41.6041 32.2478 40.9963 32.4543 40.5704 32.8797C40.145 33.305 39.9503 33.9128 40.06 34.5088L41.7368 44.2224ZM51.5226 35.8704L48.7752 37.1107C48.5077 37.2321 48.3011 37.4873 48.2524 37.7795C48.2038 38.0711 48.2888 38.3749 48.5076 38.5938L53.5284 43.6022C53.5525 43.6263 53.5525 43.6632 53.5407 43.675L51.3284 45.827L46.3077 40.7945C46.1375 40.6243 45.9064 40.5269 45.6635 40.5269C45.6148 40.5269 45.5543 40.5269 45.5056 40.5392C45.2141 40.5879 44.9589 40.7944 44.8368 41.062L43.5485 43.9186L41.8952 34.1445L51.5226 35.8704Z" fill="white"/>
</svg>
