<svg width="218" height="29" viewBox="0 0 218 29" fill="none" xmlns="http://www.w3.org/2000/svg">
<g clip-path="url(#clip0_823_5059)">
<path d="M211.725 5.27793C211.725 7.37189 209.91 9.06428 207.664 9.06428C205.388 9.06428 203.604 7.37189 203.604 5.27793C203.604 3.15528 205.419 1.49158 207.664 1.49158C209.91 1.49158 211.725 3.18396 211.725 5.27793ZM210.956 5.27793C210.956 3.61423 209.479 2.23737 207.695 2.23737C205.88 2.23737 204.435 3.61423 204.435 5.27793C204.435 6.94163 205.88 8.31848 207.695 8.31848C209.449 8.34717 210.956 6.94163 210.956 5.27793ZM209.418 4.84766C209.418 5.36398 209.079 5.82293 208.649 6.05241L209.449 7.1711H208.218L207.664 6.2532H207.049V7.1711H205.973V3.41344H208.003C208.833 3.41344 209.418 3.98713 209.418 4.84766ZM207.08 4.30266V5.3353H207.849C208.126 5.3353 208.403 5.10582 208.403 4.84766C208.403 4.5895 208.157 4.33134 207.911 4.33134C207.88 4.30266 207.08 4.30266 207.08 4.30266Z" fill="white"/>
<path d="M180.072 2.03645V12.2194H167.307V1.4054H160.078V28.9999H167.307V18.1858H180.072V28.9999H187.332V16.9237L180.718 3.29857L180.072 2.03645Z" fill="white"/>
<path d="M141.683 22.7468H139.499L142.421 28.9713C147.804 28.8279 152.726 26.1029 155.495 21.8002L149.466 18.5588C148.051 21.0257 145.344 22.7468 141.683 22.7468Z" fill="white"/>
<path d="M141.683 0C137.346 0 133.562 1.40554 130.763 3.7003L133.87 10.269C135.254 7.71612 138.115 5.99505 141.714 5.99505C145.436 5.99505 148.204 7.65875 149.589 10.183L155.618 6.88427C152.942 2.75371 147.989 0 141.683 0Z" fill="white"/>
<path d="M128.241 11.7605C128.241 5.76544 123.719 1.4054 117.721 1.4054H101.787V28.9712H108.739V7.62993H116.705C119.197 7.71598 121.104 9.66652 121.012 11.99C120.92 14.1987 119.013 15.9484 116.675 16.0058H114.152L120.181 28.9712V28.9999H127.01L122.95 20.624H123.104C126.211 18.989 128.241 15.6903 128.241 11.7605Z" fill="white"/>
<path d="M89.79 28.9999H97.3571L84.653 1.4054H76.686L64.0435 28.9999H71.6106L73.5792 24.6685H83.3611L80.7772 19.2471H76.0401L80.7464 8.14625L89.79 28.9999Z" fill="white"/>
<path d="M52.539 16.6369L44.4182 7.34308L39.2812 1.4054H38.9736H30.4837V8.89204L37.4663 24.0088V10.4984L48.4479 22.6606L54.2308 28.9999H54.723H59.7677V1.4054H52.539V16.6369Z" fill="white"/>
<path d="M12.0274 1.4054L-0.615234 28.9999H6.95186L8.92054 24.6685L11.3814 19.2471L16.0877 8.14625L20.0866 17.4687L23.1627 24.6685L23.4703 25.3282L25.1313 28.9999H32.6984L19.9943 1.4054H12.0274Z" fill="white"/>
<path d="M200.497 11.6458L195.606 1.4054H187.701L194.499 15.6042V28.9999H201.728V15.9771V14.17L200.497 11.6458Z" fill="white"/>
</g>
<defs>
<clipPath id="clip0_823_5059">
<rect width="218" height="29" fill="white"/>
</clipPath>
</defs>
</svg>
