<svg width="73" height="36" viewBox="0 0 73 36" fill="none" xmlns="http://www.w3.org/2000/svg">
<g opacity="0.9" clip-path="url(#clip0)">
<path d="M8.43722 8.68702H12.0489C12.183 8.68699 12.3139 8.72789 12.4241 8.80423C12.5343 8.88058 12.6184 8.98871 12.6651 9.11411L17.3897 21.8104L22.1142 9.11047C22.1616 8.98575 22.2459 8.8784 22.3561 8.80274C22.4662 8.72708 22.5968 8.68671 22.7305 8.68702H26.2326C26.2844 8.68704 26.3353 8.69971 26.3811 8.72393C26.4268 8.74815 26.4659 8.78318 26.4949 8.82596C26.5239 8.86873 26.5419 8.91794 26.5475 8.96929C26.553 9.02063 26.5458 9.07255 26.5266 9.12049L19.3142 27.0367C19.2645 27.1599 19.179 27.2654 19.0687 27.3397C18.9584 27.414 18.8283 27.4537 18.6952 27.4538H15.9728C15.8397 27.4537 15.7096 27.414 15.5993 27.3397C15.489 27.2654 15.4035 27.1599 15.3538 27.0367L8.14142 9.12049C8.12212 9.0724 8.11496 9.02033 8.12057 8.96883C8.12619 8.91734 8.14441 8.86802 8.17362 8.8252C8.20284 8.78238 8.24216 8.74739 8.28813 8.72329C8.33409 8.69919 8.38529 8.68674 8.43722 8.68702Z" fill="white"/>
<path d="M48.8844 9.20973C48.8854 9.07076 48.9414 8.93781 49.0402 8.83989C49.1391 8.74196 49.2728 8.68701 49.4121 8.68701H57.5575C59.692 8.68701 61.3737 9.27256 62.4409 10.3371C63.2954 11.1886 63.7191 12.2267 63.7191 13.5053V13.5581C63.7191 15.6608 62.5989 16.8365 61.2641 17.5777C63.426 18.4028 64.7598 19.654 64.7598 22.1565V22.2093C64.7598 25.617 61.9844 27.3208 57.7684 27.3208H49.4121C49.3427 27.3208 49.274 27.3072 49.2099 27.2807C49.1459 27.2542 49.0876 27.2153 49.0386 27.1663C48.9896 27.1174 48.9508 27.0592 48.9243 26.9953C48.8978 26.9313 48.8843 26.8627 48.8844 26.7935V9.20973ZM56.6765 16.2163C58.4915 16.2163 59.639 15.6308 59.639 14.2466V14.1937C59.639 12.9689 58.6777 12.2814 56.9431 12.2814H52.8914V16.2209L56.6765 16.2163ZM57.7721 23.7237C59.5861 23.7237 60.6807 23.0863 60.6807 21.7003V21.6465C60.6807 20.3962 59.7468 19.624 57.6378 19.624H52.8914V23.7219L57.7721 23.7237Z" fill="white"/>
<path d="M0.213684 2.23681V33.7627C0.213684 34.105 0.34998 34.4332 0.592589 34.6752C0.835197 34.9172 1.16425 35.0531 1.50735 35.0531H40.7253C40.7916 35.0531 40.8568 35.0355 40.9141 35.0022C40.9714 34.9689 41.0189 34.9211 41.0518 34.8635C41.0846 34.806 41.1016 34.7409 41.101 34.6747C41.1004 34.6085 41.0823 34.5437 41.0485 34.4867L39.04 31.4624C38.9891 31.3787 38.9174 31.3095 38.8318 31.2616C38.7462 31.2137 38.6497 31.1888 38.5515 31.1892H4.09193V4.81487H68.638V31.1856H48.1878L41.1699 20.6621C43.5436 19.7833 45.1732 17.8937 45.1732 14.8849V14.8321C45.1732 13.0754 44.6126 11.6111 43.5719 10.5729C42.3439 9.34902 40.5025 8.68697 38.1279 8.68697H30.1149C29.9752 8.68697 29.8412 8.74233 29.7424 8.84087C29.6436 8.93941 29.5881 9.07306 29.5881 9.21242V26.7899C29.588 26.8591 29.6015 26.9276 29.628 26.9916C29.6545 27.0555 29.6933 27.1137 29.7423 27.1626C29.7913 27.2116 29.8496 27.2505 29.9136 27.277C29.9777 27.3035 30.0464 27.3171 30.1158 27.3171H33.1715C33.2408 27.3171 33.3095 27.3035 33.3736 27.277C33.4377 27.2505 33.4959 27.2116 33.5449 27.1626C33.5939 27.1137 33.6328 27.0555 33.6592 26.9916C33.6857 26.9276 33.6993 26.8591 33.6992 26.7899V21.3542H36.9283L45.9319 34.7654C45.9915 34.854 46.0721 34.9266 46.1665 34.9768C46.2609 35.0269 46.3663 35.0532 46.4733 35.0531H71.2263C71.5694 35.0531 71.8984 34.9172 72.141 34.6752C72.3836 34.4332 72.5199 34.105 72.5199 33.7627V2.23681C72.5197 1.89465 72.3833 1.56657 72.1408 1.32463C71.8982 1.08268 71.5693 0.946652 71.2263 0.946411L1.50735 0.946411C1.16432 0.946652 0.835412 1.08268 0.592856 1.32463C0.3503 1.56657 0.213926 1.89465 0.213684 2.23681H0.213684ZM41.0101 15.0989C41.0101 16.6689 39.8625 17.7343 37.8604 17.7343H33.6973V12.3833H37.781C39.7822 12.3833 41.0101 13.2885 41.0101 15.0452V15.0989Z" fill="white"/>
</g>
<defs>
<clipPath id="clip0">
<rect width="72.3063" height="34.1067" fill="white" transform="translate(0.213684 0.946411)"/>
</clipPath>
</defs>
</svg>
