<svg width="197" height="77" viewBox="0 0 197 77" fill="none" xmlns="http://www.w3.org/2000/svg">
<path fill-rule="evenodd" clip-rule="evenodd" d="M25.1909 31.123C19.1637 31.123 14.2784 36.0084 14.2784 42.0355C14.2784 48.0627 19.1637 52.948 25.1909 52.948C31.2181 52.948 36.1034 48.0627 36.1034 42.0355C36.1034 36.0084 31.2181 31.123 25.1909 31.123ZM22.9676 38.1182C20.8073 39.3459 20.0485 42.096 21.2736 44.2563C22.5012 46.4192 25.2514 47.1779 27.4117 45.9528C29.4006 44.8235 30.2022 42.4137 29.3679 40.3517C29.2216 40.6113 29.0074 40.8382 28.7301 40.997C27.926 41.4507 26.905 41.1709 26.4488 40.3668C25.995 39.5652 26.2749 38.5442 27.079 38.088C27.1269 38.0602 27.1723 38.0376 27.2201 38.0149C25.9219 37.362 24.3288 37.3469 22.9676 38.1182Z" fill="white"/>
<path fill-rule="evenodd" clip-rule="evenodd" d="M103.047 74.6696C103.047 74.9746 102.992 75.2569 102.878 75.514C102.768 75.7686 102.591 75.9905 102.354 76.1745C102.117 76.361 101.815 76.5047 101.449 76.608C101.086 76.7114 100.653 76.7644 100.148 76.7644C99.2687 76.7644 98.5856 76.6055 98.1041 76.2904C97.6201 75.9728 97.3101 75.514 97.174 74.9166L98.2629 74.6998C98.3083 74.8788 98.3738 75.0376 98.4621 75.1838C98.5478 75.33 98.6688 75.4561 98.8225 75.5619C98.9738 75.6703 99.1628 75.751 99.3822 75.809C99.6065 75.8644 99.8737 75.8947 100.186 75.8947C100.448 75.8947 100.69 75.8695 100.907 75.8241C101.121 75.7787 101.308 75.7081 101.462 75.6124C101.616 75.5191 101.734 75.3981 101.82 75.2494C101.903 75.1032 101.943 74.9267 101.943 74.72C101.943 74.4906 101.885 74.3041 101.769 74.1604C101.651 74.0167 101.5 73.8957 101.306 73.8024C101.116 73.7117 100.897 73.6335 100.655 73.573C100.411 73.5125 100.161 73.4495 99.909 73.389C99.7174 73.3436 99.5233 73.2957 99.3292 73.2453C99.1376 73.1974 98.9511 73.1369 98.7746 73.0663C98.5957 72.9958 98.4268 72.9151 98.273 72.8193C98.1218 72.7235 97.9882 72.6076 97.8747 72.4689C97.7613 72.3328 97.6731 72.1715 97.6075 71.9875C97.5395 71.806 97.5067 71.5917 97.5067 71.3446C97.5067 71.0043 97.5747 70.7119 97.7084 70.4699C97.842 70.2279 98.031 70.0288 98.268 69.8751C98.51 69.7188 98.7898 69.6053 99.1175 69.5322C99.4427 69.4591 99.7956 69.4238 100.176 69.4238C100.61 69.4238 100.983 69.4591 101.29 69.5297C101.598 69.6003 101.858 69.7062 102.067 69.8473C102.276 69.9885 102.445 70.1624 102.573 70.3716C102.7 70.5808 102.8 70.8254 102.876 71.1052L101.772 71.2716C101.732 71.1027 101.671 70.9514 101.59 70.8254C101.507 70.7019 101.401 70.596 101.273 70.5103C101.144 70.4246 100.985 70.359 100.801 70.3187C100.615 70.2758 100.401 70.2557 100.148 70.2557C99.8611 70.2557 99.6141 70.2809 99.4174 70.3364C99.2233 70.3893 99.062 70.4649 98.9435 70.5582C98.8251 70.654 98.7394 70.7649 98.6889 70.8909C98.6385 71.017 98.6133 71.1531 98.6133 71.2968C98.6133 71.4959 98.6612 71.6598 98.7545 71.7883C98.8503 71.9169 98.9788 72.0278 99.1452 72.1135C99.309 72.1992 99.4981 72.2748 99.7199 72.3328C99.9367 72.3958 100.174 72.4563 100.426 72.5193C100.635 72.5672 100.844 72.6202 101.058 72.6706C101.273 72.7235 101.474 72.784 101.669 72.8546C101.863 72.9252 102.044 73.0084 102.21 73.1092C102.379 73.2075 102.526 73.3285 102.652 73.4722C102.775 73.6159 102.873 73.7873 102.944 73.9814C103.012 74.1755 103.047 74.4049 103.047 74.6696ZM114.376 73.0588C114.376 73.6209 114.295 74.1251 114.139 74.5814C113.98 75.0376 113.751 75.4283 113.451 75.751C113.151 76.0736 112.783 76.3232 112.349 76.4996C111.915 76.6736 111.426 76.7644 110.879 76.7644C110.3 76.7644 109.79 76.6711 109.354 76.4896C108.916 76.3056 108.553 76.0484 108.26 75.7182C107.968 75.3905 107.751 74.9998 107.605 74.5486C107.459 74.0974 107.388 73.5982 107.388 73.0588C107.388 72.5042 107.464 72.0001 107.618 71.5514C107.769 71.1027 107.996 70.722 108.296 70.4069C108.593 70.0918 108.959 69.8499 109.395 69.681C109.831 69.5095 110.33 69.4238 110.89 69.4238C111.449 69.4238 111.946 69.5095 112.379 69.681C112.813 69.8549 113.178 70.0994 113.473 70.4145C113.766 70.7296 113.99 71.1128 114.146 71.5589C114.3 72.0051 114.376 72.5042 114.376 73.0588ZM113.226 73.0588C113.226 72.6454 113.176 72.2723 113.075 71.9345C112.974 71.5967 112.823 71.3094 112.626 71.0724C112.432 70.8354 112.188 70.6514 111.895 70.5204C111.603 70.3893 111.268 70.3237 110.89 70.3237C110.494 70.3237 110.153 70.3893 109.859 70.5204C109.566 70.6514 109.322 70.8354 109.125 71.0724C108.928 71.3094 108.782 71.5967 108.684 71.9345C108.586 72.2723 108.535 72.6454 108.535 73.0588C108.535 73.4697 108.588 73.8453 108.686 74.1881C108.79 74.5309 108.938 74.8284 109.135 75.0779C109.332 75.3275 109.576 75.5191 109.866 75.6577C110.159 75.7964 110.494 75.8619 110.879 75.8619C111.288 75.8619 111.641 75.7938 111.938 75.6527C112.233 75.514 112.478 75.3174 112.669 75.0679C112.861 74.8183 113.002 74.5234 113.093 74.1805C113.181 73.8402 113.226 73.4646 113.226 73.0588ZM122.195 69.5221L124.877 76.6635H123.733C122.576 73.4672 122.795 73.9461 121.537 70.3817C120.138 74.3016 120.658 73.0588 119.329 76.6635H118.172L120.869 69.5221H122.195ZM133.193 71.6094C133.193 71.201 133.06 70.8884 132.793 70.6741C132.525 70.4599 132.147 70.3515 131.668 70.3515H130.179V72.9076H131.706C131.966 72.9076 132.188 72.8722 132.377 72.8067C132.566 72.7386 132.72 72.6479 132.841 72.532C132.964 72.4135 133.052 72.2799 133.108 72.121C133.166 71.9648 133.193 71.7934 133.193 71.6094ZM134.345 71.5992C134.345 71.8286 134.31 72.053 134.245 72.2647C134.177 72.479 134.073 72.6781 133.935 72.8546C133.796 73.0336 133.619 73.1899 133.405 73.321C133.193 73.4495 132.941 73.5478 132.649 73.6108L134.645 76.6635H133.357L131.555 73.7268H130.179V76.6635H129.039V69.5221H131.767C132.185 69.5221 132.553 69.57 132.876 69.6683C133.196 69.7641 133.466 69.9003 133.685 70.0818C133.902 70.2582 134.066 70.4775 134.177 70.7321C134.29 70.9917 134.345 71.2791 134.345 71.5992Z" fill="white"/>
<path fill-rule="evenodd" clip-rule="evenodd" d="M141.742 76.6609V69.5195H142.882V72.4865H146.786V69.5195H147.898V76.6609H146.786V73.4293H142.882V76.6609H141.742Z" fill="white"/>
<path d="M154.117 69.5195H152.981V76.6609H154.117V69.5195Z" fill="white"/>
<path fill-rule="evenodd" clip-rule="evenodd" d="M165.23 75.5393C165.081 75.7031 164.907 75.8594 164.706 76.0081C164.502 76.1568 164.275 76.2854 164.023 76.3988C163.768 76.5097 163.496 76.598 163.198 76.6635C162.901 76.7291 162.581 76.7619 162.243 76.7619C161.668 76.7619 161.167 76.6686 160.741 76.4871C160.315 76.303 159.962 76.0459 159.679 75.7182C159.4 75.388 159.188 74.9973 159.049 74.5461C158.911 74.0949 158.84 73.5982 158.84 73.0588C158.84 72.5017 158.911 72.0001 159.047 71.5489C159.185 71.1027 159.392 70.7195 159.672 70.4069C159.949 70.0918 160.297 69.8474 160.718 69.6785C161.136 69.507 161.625 69.4238 162.185 69.4238C162.591 69.4238 162.949 69.4667 163.259 69.5575C163.569 69.6432 163.839 69.7641 164.071 69.9179C164.3 70.0691 164.494 70.2507 164.658 70.4599C164.819 70.6691 164.958 70.8935 165.069 71.1329L164.04 71.501C163.97 71.3447 163.879 71.1934 163.773 71.0523C163.667 70.9086 163.539 70.7826 163.39 70.6767C163.239 70.5683 163.065 70.4826 162.866 70.4195C162.669 70.354 162.44 70.3238 162.185 70.3238C161.802 70.3238 161.472 70.3868 161.197 70.5179C160.922 70.6489 160.695 70.833 160.516 71.0724C160.335 71.3069 160.201 71.5942 160.118 71.9345C160.032 72.2698 159.989 72.6454 159.989 73.0588C159.989 73.4672 160.037 73.8428 160.131 74.1881C160.226 74.5309 160.368 74.8284 160.557 75.078C160.746 75.325 160.98 75.5191 161.262 75.6552C161.542 75.7938 161.87 75.8619 162.243 75.8619C162.48 75.8619 162.697 75.8392 162.896 75.7939C163.095 75.7485 163.274 75.688 163.435 75.6174C163.597 75.5493 163.74 75.4687 163.866 75.3805C163.995 75.2922 164.101 75.204 164.184 75.1158V73.878H162.266V73.0286H165.23V75.5393Z" fill="white"/>
<path fill-rule="evenodd" clip-rule="evenodd" d="M170.079 76.6609V69.5195H171.219V72.4865H175.123V69.5195H176.235V76.6609H175.123V73.4293H171.219V76.6609H170.079Z" fill="white"/>
<path fill-rule="evenodd" clip-rule="evenodd" d="M181.318 70.4094V69.5195H186.283V70.4094H181.318Z" fill="white"/>
<path fill-rule="evenodd" clip-rule="evenodd" d="M181.318 76.6515V72.5703H186.283V73.4602H182.454V75.7743H186.5V76.6515H181.318Z" fill="white"/>
<path fill-rule="evenodd" clip-rule="evenodd" d="M195.172 71.6067C195.172 71.1959 195.036 70.8858 194.769 70.669C194.499 70.4548 194.126 70.3489 193.644 70.3489H192.155V72.9024H193.685C193.942 72.9024 194.164 72.8697 194.353 72.8016C194.542 72.7361 194.696 72.6428 194.817 72.5268C194.94 72.4109 195.028 72.2748 195.086 72.1185C195.142 71.9597 195.172 71.7908 195.172 71.6067ZM196.321 71.5967C196.321 71.8261 196.286 72.0479 196.221 72.2621C196.153 72.4764 196.049 72.673 195.911 72.852C195.772 73.0285 195.595 73.1848 195.381 73.3159C195.169 73.4469 194.917 73.5427 194.625 73.6057L196.621 76.6609H195.333L193.531 73.7242H192.155V76.6609H191.018V69.5195H193.743C194.161 69.5195 194.529 69.5674 194.852 69.6632C195.172 69.759 195.442 69.8977 195.661 70.0766C195.878 70.2556 196.042 70.4724 196.153 70.7295C196.266 70.9867 196.321 71.2765 196.321 71.5967Z" fill="white"/>
<path fill-rule="evenodd" clip-rule="evenodd" d="M47.9541 68.6354L52.252 60.4908C51.821 60.1 51.3975 59.6866 50.9866 59.2531C49.7237 57.9221 48.665 56.5079 47.8104 55.0156C46.855 56.6693 45.6577 58.2271 44.2233 59.6866C43.946 59.9614 43.6662 60.2286 43.3839 60.4882L47.9541 68.6354Z" fill="white"/>
<path fill-rule="evenodd" clip-rule="evenodd" d="M9.32751 56.3416C13.4288 60.9496 18.4679 63.3972 24.5152 63.6115C30.4164 63.8283 35.526 61.7411 39.7735 57.4936C44.0211 53.1755 46.1788 47.9928 46.1788 42.021C46.1788 36.261 44.1647 31.2951 40.2046 27.1206C36.247 22.9462 31.4247 20.7859 25.7378 20.6422C19.8341 20.4255 14.7245 22.5152 10.4064 26.8333C6.16141 31.0783 4.0011 36.1904 4.0011 42.0916V76.9994H9.32751V56.3416ZM36.3906 31.1514C39.34 34.3906 40.7819 38.1314 40.7088 42.452C40.6356 46.8407 39.0526 50.5135 35.9596 53.6065C32.8641 56.702 29.1913 58.2145 24.8732 58.2145C20.6282 58.2145 17.0285 56.702 14.0767 53.6065C11.1274 50.5135 9.54178 46.8407 9.4712 42.5226C9.3981 37.9877 10.9106 34.1007 14.0767 30.7203C17.3159 27.3349 21.1298 25.825 25.6647 26.0392C29.9122 26.1854 33.4388 27.9122 36.3906 31.1514Z" fill="white"/>
<path fill-rule="evenodd" clip-rule="evenodd" d="M91.7091 42.0899C91.7091 36.3325 89.695 31.364 85.7374 27.1896C81.7772 22.9446 76.8819 20.7843 71.1975 20.57C65.2938 20.3532 60.1842 22.4404 55.9367 26.7585C51.6917 31.006 49.5314 36.1888 49.5314 42.163C49.5314 47.9205 51.4749 52.8864 55.435 57.0608C59.3927 61.2353 64.288 63.3956 69.9724 63.5392C75.8761 63.7535 80.9857 61.6689 85.2332 57.4213C89.5513 53.1007 91.7091 47.9911 91.7091 42.0899ZM59.3221 53.1007C56.3703 49.8615 55.0015 46.0475 55.0746 41.7294C55.1451 37.3382 56.6576 33.668 59.7531 30.575C62.8461 27.4794 66.5189 25.8939 70.9101 25.967C75.0845 25.967 78.6111 27.4794 81.5604 30.575C84.5123 33.668 86.0953 37.3382 86.239 41.6563C86.3121 46.1912 84.7996 50.0783 81.5604 53.4637C78.3943 56.8441 74.5804 58.3565 70.0455 58.1397C65.798 57.996 62.2714 56.3399 59.3221 53.1007Z" fill="white"/>
<path fill-rule="evenodd" clip-rule="evenodd" d="M112.145 58.9289C105.883 58.9289 102.717 55.919 102.717 49.8137V26.6855H112.145V21.5734H102.717V7.17969H97.174V50.7489C97.174 59.2187 102.14 63.4637 112.145 63.4637V58.9289Z" fill="white"/>
<path fill-rule="evenodd" clip-rule="evenodd" d="M131.932 58.9289C125.67 58.9289 122.504 55.919 122.504 49.8137V26.6855H131.932V21.5734H122.504V7.17969H116.961V50.7489C116.961 59.2187 121.927 63.4637 131.932 63.4637V58.9289Z" fill="white"/>
<path fill-rule="evenodd" clip-rule="evenodd" d="M168.731 49.1433C165.925 55.047 161.317 58.0694 154.841 58.14C150.667 58.2131 147.067 56.8443 143.972 54.1824C140.879 51.5179 139.149 48.0644 138.718 43.9631H175.57V41.0113C175.57 35.9017 173.626 31.2937 169.739 27.1924C165.708 23.0179 160.959 20.7845 155.489 20.4266C149.371 20.0661 144.115 22.1533 139.583 26.6151C135.119 31.0063 132.961 36.3327 133.105 42.4506C133.178 48.2812 135.406 53.2472 139.727 57.4922C144.045 61.6691 149.011 63.6832 154.624 63.6101C159.086 63.5395 163.119 62.2438 166.79 59.6525C170.46 57.0611 173.051 53.5345 174.561 49.1433H168.731ZM138.718 38.9241C139.51 35.037 141.31 31.8684 144.261 29.4938C147.211 27.1192 150.667 25.8967 154.624 25.9672C158.585 26.0403 161.967 27.2629 164.773 29.64C167.581 32.0146 169.381 35.1076 170.173 38.9241H138.718Z" fill="white"/>
<path fill-rule="evenodd" clip-rule="evenodd" d="M185.825 38.0529C185.825 35.391 186.256 33.3038 187.191 31.7207C187.768 30.783 188.847 29.6335 190.43 28.3378C192.014 27.0422 194.103 26.3212 196.621 26.2506V20.778C194.461 20.7074 192.374 21.2116 190.287 22.2905C188.056 23.5131 186.329 25.1692 185.177 27.4001V21.5695H180.068V62.5978H185.825V38.0529Z" fill="white"/>
<path fill-rule="evenodd" clip-rule="evenodd" d="M46.5205 21.6409C46.2206 22.0695 45.4265 21.8502 45.1366 21.9258C45.2198 21.7166 45.0938 21.4241 44.8518 21.3082C44.272 21.0334 44.1485 21.704 43.2234 21.9081C43.4654 21.6939 43.1074 21.3334 42.8377 21.2048C42.2806 20.9427 41.9957 21.5603 41.2924 21.7644C41.4437 21.4695 41.2219 21.157 40.9269 21.0183C40.39 20.7637 40.1757 21.5451 39.3565 21.5149C39.8203 21.2578 39.5758 20.8519 39.2607 20.7032C38.7389 20.4562 38.3633 21.157 37.423 21.1746C38.0129 20.8318 37.6499 20.4184 37.3147 20.2621C36.808 20.0226 36.2887 20.5948 35.4946 20.7561C35.7593 20.4713 35.5778 20.1159 35.2249 19.9495C34.7283 19.715 34.2998 20.3932 33.5788 20.2621C33.967 20.0554 33.8284 19.4806 33.4604 19.3092C32.9739 19.0798 32.3739 19.7403 31.6731 19.7025C31.9655 19.4277 31.8698 19.0269 31.4891 18.8454C31.0127 18.6211 30.501 19.1101 29.7851 19.0798C30.1203 18.7597 29.8758 18.3538 29.4801 18.1673C29.0137 17.9455 28.5877 18.4824 27.9096 18.4043C28.2827 18.1371 27.8869 17.7111 27.4785 17.5195C27.0198 17.3027 26.5055 17.5699 26.0568 17.6707C26.3114 17.3808 26.0619 16.9548 25.6384 16.7582C25.1897 16.5439 24.7561 16.917 24.2192 16.8867C24.504 16.5994 24.3377 16.1482 23.9041 15.944C23.4604 15.7348 22.9689 16.1154 22.4042 16.0524C22.7521 15.8003 22.5303 15.2558 22.0816 15.044C21.648 14.8399 21.1589 15.1877 20.6119 15.1701C20.9371 14.8625 20.7304 14.3307 20.2716 14.1139C19.8431 13.9122 19.3843 14.2172 18.8449 14.2399C19.2936 13.9904 19.0012 13.3602 18.5273 13.1383C18.1088 12.9392 17.5719 13.2291 17.1055 13.2593C17.4509 12.9216 17.2568 12.3241 16.7677 12.0947C16.3569 11.9006 15.8628 12.2409 15.3964 12.2309C15.7872 11.883 15.3435 11.2654 14.8419 11.0284C14.4385 10.8368 14.2772 11.336 13.4932 11.0133C14.1537 10.6654 13.7126 10.1562 13.1908 9.9092C12.795 9.72266 12.369 10.0756 11.7287 10.0327C12.2152 9.75546 12.1194 8.99418 11.58 8.73958C11.1918 8.55808 10.8439 8.96646 10.1078 8.69673C10.9447 8.65136 10.5843 7.77916 10.0196 7.51196C9.63897 7.33299 9.3768 7.54976 8.94827 7.59766C9.28606 7.39852 9.55578 6.72041 9.0239 6.47085C8.64326 6.29188 8.17944 6.57674 7.44589 6.31457C8.23741 6.43053 8.08364 5.38187 7.51143 5.11215C7.14087 4.93821 6.66444 5.09705 6.03173 4.95337C6.61907 4.75675 6.85854 3.9652 6.1376 3.62489C5.67125 3.40559 5.07131 3.35517 4.62261 3.34257C4.44615 2.28384 2.87571 1.19737 0.639771 0C2.98662 0.96546 4.82175 1.48476 5.75192 0.947832C6.04685 1.28562 6.46782 1.71921 6.93417 1.93851C7.65511 2.27882 8.11137 1.59063 7.88954 1.01338C8.40378 1.40914 8.58276 1.87799 8.95583 2.05444C9.52805 2.32165 10.4355 1.77466 9.84063 1.23774C10.5112 1.63602 10.5843 2.17545 10.9649 2.35443C11.4968 2.6065 11.8497 1.96625 11.7867 1.58057C12.0211 1.94356 12.0211 2.28132 12.4017 2.46282C12.9664 2.7275 13.8688 2.45021 13.3722 1.77716C14.0503 2.17292 13.9545 2.70231 14.3427 2.88381C14.8822 3.13841 15.53 2.73004 15.4342 2.17799C15.8729 2.64181 15.8729 3.19638 16.2711 3.38292C16.7904 3.62995 17.4635 3.64759 17.3148 2.91404C18.0609 3.31484 17.7786 3.75599 18.1844 3.94757C18.6861 4.18452 19.4423 4.13158 19.4625 3.60978C19.7675 3.96269 19.8179 4.5601 20.2313 4.7542C20.7178 4.98611 21.3026 4.75423 21.343 4.27528C21.6177 4.6534 21.7337 5.2508 22.1547 5.44994C22.6286 5.67429 23.3016 5.49783 23.2058 4.99368C23.5335 5.42221 23.589 5.97175 24.0175 6.17341C24.4763 6.3902 25.0183 6.20869 25.0485 5.76504C25.409 6.17592 25.4518 6.77338 25.8854 6.98008C26.3341 7.1893 26.8963 7.01536 26.8685 6.58682C27.2769 6.98259 27.2971 7.60272 27.7382 7.81194C28.1743 8.01865 28.628 7.85982 28.6658 7.4565C29.0314 7.85226 29.0188 8.42194 29.47 8.63369C29.8909 8.83283 30.38 8.75722 30.4405 8.37406C30.6472 8.78747 30.7707 9.35464 31.227 9.5689C31.6378 9.76301 32.2151 9.79577 32.1848 9.33951C32.6764 9.81341 32.5327 10.4839 33.0016 10.7032C33.3974 10.8898 33.8662 10.8192 33.899 10.3554C34.3779 10.8898 34.3275 11.5956 34.8039 11.82C35.1846 12.0015 35.5551 11.8175 35.5803 11.4192C36.0568 11.9359 35.9282 12.8182 36.4122 13.0476C36.7802 13.2215 37.3121 12.9619 37.2239 12.5333C37.786 13.0047 37.534 13.7685 38.0305 14.0004C38.3835 14.1668 38.7742 14.0811 38.8246 13.6979C39.2052 14.4113 39.0943 15.1777 39.601 15.4171C39.9363 15.5734 40.4858 15.5936 40.3749 14.918C40.9572 15.6541 40.6572 16.3927 41.179 16.6372C41.4941 16.7859 41.9605 16.7153 41.8672 16.1935C42.4117 16.8086 41.9453 17.4691 42.4823 17.7211C42.7747 17.8598 43.1603 17.8346 43.2889 17.5296C43.5813 18.2001 43.2839 18.8151 43.841 19.0773C44.1107 19.2059 44.6174 19.2512 44.6274 18.9286C45.061 19.773 44.6224 20.2923 45.2047 20.5671C45.4442 20.6805 45.7492 20.5898 45.8601 20.3932C45.9861 20.6654 46.6592 21.1368 46.5205 21.6409Z" fill="white"/>
<path fill-rule="evenodd" clip-rule="evenodd" d="M49.1647 21.6409C49.4672 22.0695 50.2612 21.8502 50.5486 21.9258C50.4679 21.7166 50.5914 21.4241 50.8334 21.3082C51.4157 21.0334 51.5367 21.704 52.4644 21.9081C52.2224 21.6939 52.5778 21.3334 52.8501 21.2048C53.4072 20.9427 53.692 21.5603 54.3953 21.7644C54.2415 21.4695 54.4659 21.157 54.7608 21.0183C55.2977 20.7637 55.5095 21.5451 56.3313 21.5149C55.8674 21.2578 56.1094 20.8519 56.4271 20.7032C56.9463 20.4562 57.3245 21.157 58.2647 21.1746C57.6723 20.8318 58.0378 20.4184 58.3706 20.2621C58.8773 20.0226 59.3965 20.5948 60.1906 20.7561C59.9259 20.4713 60.1099 20.1159 60.4603 19.9495C60.9569 19.715 61.388 20.3932 62.1089 20.2621C61.7182 20.0554 61.8594 19.4806 62.2249 19.3092C62.7114 19.0798 63.3113 19.7403 64.0121 19.7025C63.7222 19.4277 63.8155 19.0269 64.1986 18.8454C64.6725 18.6211 65.1843 19.1101 65.9027 19.0798C65.5649 18.7597 65.8094 18.3538 66.2052 18.1673C66.6715 17.9455 67.1001 18.4824 67.7756 18.4043C67.4051 18.1371 67.7983 17.7111 68.2092 17.5195C68.6655 17.3027 69.1822 17.5699 69.6309 17.6707C69.3738 17.3808 69.6259 16.9548 70.0469 16.7582C70.4981 16.5439 70.9291 16.917 71.4661 16.8867C71.1812 16.5994 71.3476 16.1482 71.7837 15.944C72.2248 15.7348 72.7164 16.1154 73.281 16.0524C72.9331 15.8003 73.1575 15.2558 73.6037 15.044C74.0398 14.8399 74.5263 15.1877 75.0733 15.1701C74.7506 14.8625 74.9548 14.3307 75.4161 14.1139C75.8421 13.9122 76.3034 14.2172 76.8404 14.2399C76.3917 13.9904 76.6841 13.3602 77.158 13.1383C77.579 12.9392 78.1134 13.2291 78.5797 13.2593C78.2369 12.9216 78.431 12.3241 78.9175 12.0947C79.3309 11.9006 79.8225 12.2409 80.2888 12.2309C79.9006 11.883 80.3417 11.2654 80.8434 11.0284C81.2492 10.8368 81.408 11.336 82.192 11.0133C81.5341 10.6654 81.9752 10.1562 82.4945 9.9092C82.8928 9.72266 83.3188 10.0756 83.9565 10.0327C83.47 9.75546 83.5658 8.99418 84.1053 8.73958C84.496 8.55808 84.8413 8.96646 85.5799 8.69673C84.743 8.65136 85.1035 7.77916 85.6656 7.51196C86.0488 7.33299 86.3084 7.54976 86.737 7.59766C86.3992 7.39852 86.132 6.72041 86.6613 6.47085C87.042 6.29188 87.5058 6.57674 88.2393 6.31457C87.4478 6.43053 87.6016 5.38187 88.1738 5.11215C88.5469 4.93821 89.0233 5.09705 89.6535 4.95337C89.0662 4.75675 88.8292 3.9652 89.5502 3.62489C90.014 3.40559 90.6164 3.35517 91.0651 3.34257C91.2416 2.28384 92.8095 1.19737 95.048 0C92.7011 0.96546 90.866 1.48476 89.9333 0.947832C89.6384 1.28562 89.2174 1.71921 88.7536 1.93851C88.0326 2.27882 87.5739 1.59063 87.7957 1.01338C87.284 1.40914 87.1025 1.87799 86.7319 2.05444C86.1597 2.32165 85.2522 1.77466 85.8446 1.23774C85.1766 1.63602 85.101 2.17545 84.7203 2.35443C84.191 2.6065 83.8381 1.96625 83.8986 1.58057C83.6641 1.94356 83.6666 2.28132 83.2835 2.46282C82.7214 2.7275 81.8189 2.45021 82.3155 1.77716C81.6374 2.17292 81.7332 2.70231 81.345 2.88381C80.8056 3.13841 80.1577 2.73004 80.2535 2.17799C79.8124 2.64181 79.8124 3.19638 79.4166 3.38292C78.8948 3.62995 78.2243 3.64759 78.373 2.91404C77.6268 3.31484 77.9066 3.75599 77.5033 3.94757C77.0017 4.18452 76.2429 4.13158 76.2228 3.60978C75.9203 3.96269 75.8673 4.5601 75.4565 4.7542C74.9674 4.98611 74.3826 4.75423 74.3423 4.27528C74.0675 4.6534 73.9515 5.2508 73.5331 5.44994C73.0592 5.67429 72.3861 5.49783 72.4794 4.99368C72.1542 5.42221 72.0962 5.97175 71.6702 6.17341C71.2089 6.3902 70.6695 6.20869 70.6367 5.76504C70.2762 6.17592 70.2359 6.77338 69.7998 6.98008C69.3511 7.1893 68.789 7.01536 68.8167 6.58682C68.4083 6.98259 68.3907 7.60272 67.947 7.81194C67.5135 8.01865 67.0597 7.85982 67.0194 7.4565C66.6539 7.85226 66.6665 8.42194 66.2153 8.63369C65.7943 8.83283 65.3078 8.75722 65.2473 8.37406C65.0381 8.78747 64.9171 9.35464 64.4583 9.5689C64.0499 9.76301 63.4701 9.79577 63.5004 9.33951C63.0088 9.81341 63.1525 10.4839 62.6862 10.7032C62.2904 10.8898 61.8215 10.8192 61.7862 10.3554C61.3073 10.8898 61.3602 11.5956 60.8838 11.82C60.5006 12.0015 60.1301 11.8175 60.1049 11.4192C59.631 11.9359 59.7595 12.8182 59.273 13.0476C58.9075 13.2215 58.3731 12.9619 58.4613 12.5333C57.9017 13.0047 58.1513 13.7685 57.6547 14.0004C57.3043 14.1668 56.911 14.0811 56.8632 13.6979C56.48 14.4113 56.5934 15.1777 56.0842 15.4171C55.7515 15.5734 55.202 15.5936 55.3129 14.918C54.7281 15.6541 55.028 16.3927 54.5087 16.6372C54.1936 16.7859 53.7248 16.7153 53.8206 16.1935C53.2761 16.8086 53.7424 17.4691 53.2055 17.7211C52.9106 17.8598 52.5274 17.8346 52.3963 17.5296C52.1064 18.2001 52.4014 18.8151 51.8443 19.0773C51.5746 19.2059 51.0704 19.2512 51.0578 18.9286C50.6267 19.773 51.0654 20.2923 50.4831 20.5671C50.2436 20.6805 49.936 20.5898 49.8251 20.3932C49.7016 20.6654 49.0286 21.1368 49.1647 21.6409Z" fill="white"/>
<path fill-rule="evenodd" clip-rule="evenodd" d="M70.5298 31.123C64.5026 31.123 59.6173 36.0084 59.6173 42.0355C59.6173 48.0627 64.5026 52.948 70.5298 52.948C76.557 52.948 81.4423 48.0627 81.4423 42.0355C81.4423 36.0084 76.557 31.123 70.5298 31.123ZM68.3064 38.1182C66.1436 39.3459 65.3849 42.096 66.6125 44.2563C67.8401 46.4192 70.5878 47.1779 72.7506 45.9528C74.737 44.8235 75.5386 42.4137 74.7042 40.3517C74.5605 40.6113 74.3462 40.8382 74.0664 40.997C73.2648 41.4507 72.2439 41.1709 71.7877 40.3668C71.3314 39.5652 71.6137 38.5442 72.4178 38.088C72.4632 38.0602 72.5111 38.0376 72.559 38.0149C71.2583 37.362 69.6677 37.3469 68.3064 38.1182Z" fill="white"/>
</svg>
